<svg width="28" height="29" viewBox="0 0 28 29" fill="none" xmlns="http://www.w3.org/2000/svg">
<g id="ep:location">
<path id="Vector" d="M21.4884 12.0134C21.4884 9.96174 20.6734 7.99412 19.2226 6.54339C17.7719 5.09266 15.8043 4.27765 13.7526 4.27765C11.701 4.27765 9.73338 5.09266 8.28265 6.54339C6.83192 7.99412 6.0169 9.96174 6.0169 12.0134C6.0169 15.1868 8.55594 19.3228 13.7526 24.2771C18.9493 19.3228 21.4884 15.1868 21.4884 12.0134ZM13.7526 26.6253C7.44887 20.8957 4.29785 16.0239 4.29785 12.0134C4.29785 9.50582 5.29398 7.10095 7.06709 5.32784C8.84021 3.55472 11.2451 2.55859 13.7526 2.55859C16.2602 2.55859 18.6651 3.55472 20.4382 5.32784C22.2113 7.10095 23.2074 9.50582 23.2074 12.0134C23.2074 16.0239 20.0564 20.8957 13.7526 26.6253Z" fill="#7D7D7D"/>
<path id="Vector_2" d="M13.7527 14.593C14.4366 14.593 15.0925 14.3213 15.576 13.8378C16.0596 13.3542 16.3313 12.6983 16.3313 12.0144C16.3313 11.3305 16.0596 10.6747 15.576 10.1911C15.0925 9.70752 14.4366 9.43585 13.7527 9.43585C13.0688 9.43585 12.413 9.70752 11.9294 10.1911C11.4458 10.6747 11.1741 11.3305 11.1741 12.0144C11.1741 12.6983 11.4458 13.3542 11.9294 13.8378C12.413 14.3213 13.0688 14.593 13.7527 14.593ZM13.7527 16.3121C12.6129 16.3121 11.5198 15.8593 10.7138 15.0533C9.90786 14.2473 9.45508 13.1542 9.45508 12.0144C9.45508 10.8746 9.90786 9.78151 10.7138 8.97554C11.5198 8.16958 12.6129 7.7168 13.7527 7.7168C14.8925 7.7168 15.9856 8.16958 16.7916 8.97554C17.5976 9.78151 18.0503 10.8746 18.0503 12.0144C18.0503 13.1542 17.5976 14.2473 16.7916 15.0533C15.9856 15.8593 14.8925 16.3121 13.7527 16.3121Z" fill="#7D7D7D"/>
</g>
</svg>
