<svg width="99" height="39" viewBox="0 0 99 39" fill="none" xmlns="http://www.w3.org/2000/svg">
<g id="Arrow 05" clip-path="url(#clip0_1_1373)">
<path id="Arrow 05_2" d="M-3.76925e-05 15.1231C5.57701 23.1056 29.8414 31.0513 46.1621 30.5526C63.803 30.0536 73.4635 26.563 92.2711 13.7276C92.2165 15.1329 92.0508 16.2766 92.0776 17.3198C92.0583 18.5101 92.0498 19.7684 92.3016 20.9156C92.3557 21.2561 93.0631 21.7722 93.4806 21.7757C93.8981 21.7792 94.5002 21.1947 94.5816 20.8326C95.282 17.3692 95.8469 13.9275 96.4688 10.4068C96.6345 9.26317 96.0979 8.51044 94.8915 8.35299C90.3127 7.96334 85.723 7.50557 81.0872 7.19481C80.038 7.15204 78.8613 7.61838 77.5057 7.83381C79.0556 10.5903 81.4416 9.86198 83.3229 10.3312C85.2828 10.8577 87.3242 11.0221 89.8264 11.4624C84.8069 16.1708 79.4923 19.4596 73.698 21.9167C52.4895 31.0135 31.4196 29.6133 10.6746 20.2005C7.97479 18.9536 5.43499 17.4019 2.79209 16.0761C1.99239 15.854 1.26046 15.6211 -3.76925e-05 15.1231Z" fill="#DF6951"/>
</g>
<defs>
<clipPath id="clip0_1_1373">
<rect width="96.1304" height="23.346" fill="white" transform="matrix(0.987606 -0.156951 -0.156951 -0.987606 3.66418 38.1797)"/>
</clipPath>
</defs>
</svg>
